<svg width="40" height="40" viewBox="0 0 40 40" fill="none" xmlns="http://www.w3.org/2000/svg">
<path d="M33.2533 9.45343C30.08 6.90176 25.06 6.47009 24.8466 6.45176C24.5116 6.42343 24.1933 6.61343 24.0566 6.92009C24.0466 6.94009 23.9366 7.19176 23.815 7.58343C25.9133 7.93676 28.4916 8.65009 30.825 10.0984C31.1983 10.3301 31.3133 10.8218 31.0816 11.1968C30.9316 11.4401 30.67 11.5734 30.4033 11.5734C30.26 11.5734 30.115 11.5351 29.9833 11.4534C25.9733 8.96676 20.9633 8.84176 20 8.84176C19.0366 8.84176 14.025 8.96676 10.0183 11.4534C9.64329 11.6868 9.15329 11.5701 8.91996 11.1968C8.68663 10.8218 8.80329 10.3318 9.17663 10.0984C11.51 8.65176 14.0866 7.93676 16.1866 7.58343C16.0633 7.19009 15.9533 6.94009 15.945 6.92009C15.8066 6.61343 15.49 6.42009 15.1533 6.45343C14.9416 6.47009 9.92163 6.90176 6.70496 9.49009C5.02496 11.0418 1.66663 20.1218 1.66663 27.9718C1.66663 28.1101 1.70329 28.2468 1.77163 28.3668C4.08996 32.4384 10.4133 33.5051 11.855 33.5518C11.8633 33.5518 11.8716 33.5518 11.88 33.5518C12.135 33.5518 12.375 33.4301 12.525 33.2234L13.9833 31.2201C10.0516 30.2034 8.04329 28.4784 7.92663 28.3768C7.59663 28.0851 7.56496 27.5818 7.85663 27.2518C8.14829 26.9218 8.64996 26.8901 8.97996 27.1801C9.02829 27.2234 12.7266 30.3618 20 30.3618C27.2866 30.3618 30.985 27.2101 31.0216 27.1784C31.3516 26.8918 31.855 26.9218 32.145 27.2534C32.435 27.5834 32.4033 28.0851 32.075 28.3751C31.9583 28.4784 29.95 30.2018 26.0183 31.2184L27.4766 33.2218C27.6266 33.4284 27.8666 33.5501 28.1216 33.5501C28.13 33.5501 28.1383 33.5501 28.1466 33.5501C29.5883 33.5051 35.9116 32.4384 38.23 28.3651C38.2966 28.2451 38.3333 28.1101 38.3333 27.9718C38.3333 20.1218 34.975 11.0418 33.2533 9.45343ZM14.8183 24.7834C13.2783 24.7834 12.0283 23.3551 12.0283 21.5951C12.0283 19.8351 13.2766 18.4068 14.8183 18.4068C16.36 18.4068 17.6083 19.8351 17.6083 21.5951C17.6083 23.3551 16.36 24.7834 14.8183 24.7834ZM25.1816 24.7834C23.6416 24.7834 22.3916 23.3551 22.3916 21.5951C22.3916 19.8351 23.64 18.4068 25.1816 18.4068C26.7216 18.4068 27.9716 19.8351 27.9716 21.5951C27.9716 23.3551 26.7216 24.7834 25.1816 24.7834Z" fill="#ECE8DC"/>
</svg>
